<?xml version="1.0" encoding="utf-8"?>
<!-- Generator: Adobe Illustrator 17.1.0, SVG Export Plug-In . SVG Version: 6.00 Build 0)  -->
<!DOCTYPE svg PUBLIC "-//W3C//DTD SVG 1.1//EN" "http://www.w3.org/Graphics/SVG/1.1/DTD/svg11.dtd">
<svg version="1.1" id="Warstwa_1" xmlns="http://www.w3.org/2000/svg" xmlns:xlink="http://www.w3.org/1999/xlink" x="0px" y="0px"
	 viewBox="0 0 109.3 80.8" enable-background="new 0 0 109.3 80.8" xml:space="preserve">
<g>
	<path fill="#FFFFFF" d="M107.4,23.4c0,11.4,0,22.7,0,34.1c-0.2,0-0.3,0-0.5,0c-7.5,0-15,0-22.5,0c-0.1,0-0.2,0-0.3,0
		c-0.1,0-0.1,0-0.2,0c-0.1,0.1,0,0.3,0,0.4c0,3.4,0,6.8,0,10.2c0,2.1,0,4.3,0,6.4c0,0.2,0,0.3,0,0.5c0,1.4,0,2.8,0,4.1
		c0,0.1,0,0.1,0,0.2c-0.1,0-0.2,0-0.3,0c-2,0-4,0-6.1,0c-2.7,0-5.3,0-8,0c-0.1,0-0.3,0-0.4,0c-22.5,0-45,0-67.5,0
		c0-26,0-51.9,0-77.9c30,0,60.1,0,90.1,0c0,0.1,0,0.3,0,0.4c0,2.1,0,4.3,0,6.4c0,2.5,0,5,0,7.5c0,1.8,0,3.5,0,5.3c0,0.6,0,1.3,0,1.9
		c0,0.1,0,0.2,0.1,0.3c0.1,0,0.3,0,0.4,0c4.9,0,9.8,0,14.8,0C107.1,23.4,107.3,23.4,107.4,23.4z M4.2,4.3c0,0.2,0,0.3,0,0.5
		c0,23.7,0,47.4,0,71.2c0,0.1,0,0.2,0,0.3c0,0.1,0,0.1,0,0.2c0.2,0,0.3,0,0.5,0c25.4,0,50.8,0,76.2,0c0.1,0,0.2,0,0.3,0
		c0.1,0,0.1,0,0.2,0c0-0.1,0-0.3,0-0.4c0-4.3,0-8.6,0-12.9c0-2.7,0-5.4,0-8.2c0-0.1,0-0.1,0-0.2c0-0.1,0-0.1,0-0.2
		c0.5,0,0.9,0,1.4,0c0.5,0,0.9,0,1.4,0c0.5,0,0.9,0,1.4,0c0.5,0,0.9,0,1.4,0s0.9,0,1.4,0c0.5,0,0.9,0,1.4,0s0.9,0,1.4,0s0.9,0,1.4,0
		c0.5,0,0.9,0,1.4,0c0.5,0,0.9,0,1.4,0s0.9,0,1.4,0s0.9,0,1.4,0s0.9,0,1.4,0s0.9,0,1.4,0c0.5,0,0.9,0,1.4,0c0.5,0,0.9,0,1.4,0
		c0.5,0,0.9,0,1.4,0c0-0.1,0-0.1,0-0.1c0-9.4,0-18.8,0-28.3c0,0,0-0.1,0-0.1c-0.1-0.1-0.3,0-0.4,0c-4.9,0-9.8,0-14.7,0
		c-0.1,0-0.2,0-0.3,0c-0.1,0-0.1,0-0.2,0c0-0.2,0-0.3,0-0.4c0-6.1,0-12.2,0-18.3c0-0.9,0-1.8,0-2.7c0-0.1,0-0.2-0.1-0.4
		C60.9,4.3,32.6,4.3,4.2,4.3z"/>
	<path fill="#FFFFFF" d="M6.3,6.8c0.1,0,0.1,0,0.2,0c0.1,0,0.3,0,0.4,0c18.9,0,37.7,0,56.6,0c2.7,0,5.4,0,8.1,0c5.1,0,10.2,0,15.3,0
		c0.1,0,0.3,0,0.4,0c0.1,0.1,0.1,0.1,0.1,0.2c0,0.1,0,0.2,0,0.3c0,6.9,0,13.7,0,20.6c0,0.1,0,0.3,0,0.4c0.5,0,0.9,0,1.4,0
		c0.5,0,0.9,0,1.4,0c0.5,0,1,0,1.4,0c0.5,0,0.9,0,1.4,0c0.5,0,0.9,0,1.4,0s0.9,0,1.4,0s0.9,0,1.4,0s0.9,0,1.4,0c0.5,0,1,0,1.4,0
		c0.5,0,0.9,0,1.4,0c0.5,0,0.9,0,1.4,0c0,0.1,0,0.1,0,0.2c0,0.1,0,0.2,0,0.3c0,7.7,0,15.5,0,23.2c0,0.1,0,0.3,0,0.4
		c-0.1,0-0.1,0-0.2,0c-0.1,0-0.2,0-0.3,0c-7.5,0-15.1,0-22.6,0c-0.1,0-0.3,0-0.4,0c0,0.1,0,0.1,0,0.2c0,0.1,0,0.2,0,0.3
		c0,6.8,0,13.7,0,20.5c0,0.1,0,0.3,0,0.4c-0.1,0-0.1,0-0.2,0c-0.1,0-0.2,0-0.3,0c-24,0-48,0-72,0c-0.2,0-0.3,0-0.5,0
		c0-0.1,0-0.1,0-0.2c0-0.1,0-0.2,0-0.3c0-22.1,0-44.2,0-66.3C6.3,7.1,6.3,6.9,6.3,6.8z M11.6,53.5c-0.1,0.1,0,0.3,0,0.4
		c0,5.2,0,10.3,0,15.5c0,0.1,0,0.2,0,0.2c0,0.1,0,0.1,0,0.2c0.1,0,0.2,0,0.2,0c1.1,0,2.2,0,3.4,0c0.1,0,0.1,0,0.2,0
		c0-0.1,0-0.3,0-0.4c0-1.6,0-3.2,0-4.9c0-0.6,0-1.1,0-1.7c0-0.1,0-0.1,0.1-0.2c0.1,0.1,0.2,0.1,0.2,0.2c0.9,1,1.8,2.1,2.6,3.1
		c0.1,0.1,0.2,0.2,0.4,0.2c0.1,0,0.3,0,0.3-0.2c0-0.1,0.1-0.1,0.1-0.2c0.8-1,1.7-2,2.5-3c0.1-0.1,0.1-0.2,0.2-0.2
		c0.1,0.1,0,0.3,0,0.4c0,1.6,0,3.3,0,4.9c0,0.5,0,1,0,1.5c0,0.1,0,0.2,0.1,0.3c0.1,0,0.1,0,0.2,0c1.1,0,2.2,0,3.4,0
		c0.1,0,0.1,0,0.2,0c0-0.1,0-0.3,0-0.4c0-5.2,0-10.3,0-15.5c0-0.1,0-0.2,0-0.2c0-0.1,0-0.1,0-0.2c-0.4,0-0.9,0-1.3,0
		c-0.2,0.3-0.5,0.6-0.7,0.9c-0.2,0.3-0.5,0.6-0.7,0.9c-0.2,0.3-0.5,0.6-0.7,0.9c-0.2,0.3-0.5,0.6-0.7,0.9c-0.2,0.3-0.5,0.6-0.7,0.9
		c-0.2,0.3-0.5,0.6-0.7,0.9c-0.2,0.3-0.5,0.6-0.7,0.9c-0.2,0.3-0.5,0.6-0.8,0.9c-0.5-0.6-1-1.2-1.4-1.8c-0.5-0.6-1-1.2-1.4-1.8
		c-0.5-0.6-0.9-1.2-1.4-1.8c-0.5-0.6-1-1.2-1.4-1.8C12.5,53.5,11.8,53.5,11.6,53.5z M28.6,61.8c0,0.2,0,0.5,0,0.8c0.1,1,0.3,2,0.7,3
		c1.5,3.5,4.9,5,8,4.5c1.9-0.3,3.5-1.3,4.6-2.9c0.8-1,1.2-2.2,1.4-3.5c0.2-0.9,0.2-1.8,0.1-2.8c-0.1-0.9-0.2-1.8-0.5-2.6
		c-0.5-1.4-1.2-2.6-2.4-3.5c-1.6-1.3-3.3-1.8-5.3-1.6c-1.1,0.1-2.1,0.4-3.1,1c-1.4,0.8-2.4,2-3,3.5C28.8,59.1,28.6,60.4,28.6,61.8z
		 M62.7,10.4c0,0.1,0,0.3,0,0.4c0,2.3,0,4.7,0,7c0,0.1,0,0.2,0,0.3c0,0,0,0.1,0,0.1c-0.1-0.1-0.2-0.2-0.3-0.3
		c-2.3-2.5-4.5-5-6.8-7.4c-0.1-0.1-0.1-0.1-0.2-0.2c-0.2,0-0.3,0-0.4,0c-0.1,0-0.3,0-0.4,0c-0.1,0-0.3,0-0.4,0c0,0.1,0,0.1,0,0.1
		c0,5.4,0,10.7,0,16.1c0,0,0,0.1,0,0.1c0.1,0,0.1,0,0.2,0c1.1,0,2.3,0,3.4,0c0.1,0,0.1,0,0.2,0c0-0.1,0-0.3,0-0.4c0-1.7,0-3.3,0-5
		c0-0.8,0-1.5,0-2.3c0-0.1,0-0.2,0.1-0.2c0.1,0.1,0.2,0.2,0.3,0.3c2.3,2.5,4.5,4.9,6.8,7.4c0.1,0.1,0.1,0.1,0.2,0.2
		c0.1,0.1,0.1,0.1,0.2,0.1c0.4,0,0.7,0,1.1,0c0,0,0.1,0,0.1,0c0-0.1,0-0.3,0-0.4c0-5.1,0-10.3,0-15.4c0-0.1,0-0.2,0-0.3
		c0-0.1,0-0.1,0-0.2C66,10.3,62.9,10.4,62.7,10.4z M72.2,40.4c1.2,1.3,2.4,2.6,3.6,3.9c1.2,1.3,2.4,2.7,3.6,4c0.4,0,0.8,0,1.2,0
		c0,0,0.1,0,0.1,0c0-0.2,0-0.3,0-0.4c0-5.1,0-10.2,0-15.3c0-0.1,0-0.2,0-0.3c0-0.1,0-0.1,0-0.2c0,0-0.1,0-0.1,0c-1.2,0-2.3,0-3.5,0
		c-0.1,0-0.1,0-0.2,0c0,0.2,0,0.3,0,0.4c0,2.3,0,4.7,0,7c0,0.1,0,0.2,0,0.3c0,0.1,0,0.1-0.1,0.1c-1.2-1.3-2.4-2.6-3.6-4
		c-1.2-1.3-2.4-2.7-3.6-4c-0.4,0-0.8,0-1.2,0c0,0-0.1,0-0.1,0c0,5.4,0,10.8,0,16.2c0,0,0,0.1,0,0.1c0.1,0,0.1,0,0.2,0
		c1.2,0,2.3,0,3.5,0c0.1,0,0.1,0,0.2,0c0-0.4,0-0.8,0-1.1c0-0.4,0-0.8,0-1.1c0-0.4,0-0.7,0-1.1c0-0.4,0-0.8,0-1.1c0-0.4,0-0.7,0-1.1
		c0-0.4,0-0.8,0-1.1C72.1,41.1,72.1,40.7,72.2,40.4z M56.5,63.6c-0.1,0.2-0.2,0.5-0.2,0.7c-0.3,0.8-0.9,1.4-1.6,1.7
		c-1.2,0.5-2.7,0.4-3.8-0.9c-0.4-0.5-0.7-1-0.9-1.6c-0.4-1.1-0.4-2.2-0.1-3.4c0.1-0.6,0.4-1.1,0.8-1.6c0.5-0.6,1.1-1.1,1.9-1.2
		c0.6-0.1,1.1-0.1,1.7,0c0.7,0.2,1.3,0.6,1.7,1.2c0.2,0.3,0.3,0.5,0.4,0.8c0,0.1,0.1,0.2,0.1,0.3c0.1,0,0.1,0,0.1,0
		c1.1,0,2.2,0,3.4,0c0.1,0,0.1,0,0.2,0c0-0.1,0-0.1,0-0.2c-0.1-0.5-0.2-0.9-0.3-1.4c-0.7-2-2-3.4-3.9-4.2c-1.2-0.5-2.4-0.6-3.7-0.4
		c-1.8,0.3-3.3,1.1-4.5,2.5c-0.9,1-1.4,2.2-1.7,3.5c-0.2,1-0.3,2-0.2,3.1c0.1,1,0.3,1.9,0.6,2.8c0.8,1.9,2,3.3,3.9,4.1
		c1.6,0.7,3.3,0.8,4.9,0.3c1.9-0.5,3.3-1.7,4.2-3.6c0.4-0.8,0.6-1.6,0.7-2.4c0,0,0-0.1,0-0.2C58.9,63.6,57.7,63.6,56.5,63.6z
		 M50.7,15.4c0-0.1,0-0.2,0-0.2c0-0.7-0.2-1.4-0.4-2C49.8,12,49,11.3,48,10.8c-0.8-0.4-1.6-0.6-2.5-0.6c-1.1,0-2.1,0.1-3.1,0.6
		c-1.4,0.7-2.3,1.7-2.6,3.2c-0.3,1.1-0.2,2.2,0.1,3.3c0.3,1.1,1,1.9,2,2.4c0.3,0.2,0.7,0.3,1,0.4c0.7,0.2,1.4,0.3,2,0.3
		c0.4,0,0.8,0.1,1.2,0.1c0.3,0,0.6,0.1,0.8,0.3c0.3,0.2,0.5,0.4,0.5,0.7c0.1,0.5,0,0.8-0.3,1.2c-0.2,0.2-0.5,0.3-0.8,0.4
		c-0.6,0.2-1.2,0.2-1.8,0.1c-0.3-0.1-0.7-0.2-1-0.4c-0.4-0.2-0.6-0.5-0.6-1c0,0,0-0.1,0-0.1c-0.1,0-0.1,0-0.1,0c-1.1,0-2.2,0-3.3,0
		c-0.1,0-0.1,0-0.2,0c0,0.1,0,0.1,0,0.2c0,0.2,0,0.5,0.1,0.7c0.1,1,0.6,1.9,1.3,2.6c0.6,0.6,1.2,1,2,1.3c1.3,0.5,2.7,0.6,4.1,0.3
		c0.9-0.2,1.7-0.5,2.4-1c1-0.7,1.7-1.7,1.9-3c0.2-0.9,0.1-1.9-0.1-2.8c-0.3-1-0.9-1.7-1.8-2.2c-0.3-0.2-0.7-0.3-1-0.4
		c-0.7-0.2-1.4-0.3-2.2-0.4c-0.4-0.1-0.9-0.1-1.3-0.2c-0.2,0-0.5-0.1-0.7-0.2c-0.6-0.3-0.9-0.8-0.7-1.5c0.1-0.4,0.3-0.6,0.6-0.8
		c0.3-0.2,0.7-0.3,1.1-0.4c0.5-0.1,1,0,1.5,0.2c0.4,0.2,0.7,0.6,0.8,1.1c0,0.1,0,0.1,0,0.2c0.3,0,2.6,0.1,3.3,0
		C50.6,15.4,50.6,15.4,50.7,15.4z M21.9,37c0-0.1,0-0.1,0-0.2c0-0.4,0-0.7-0.1-1.1c-0.3-1.6-1.3-2.7-2.7-3.4c-0.6-0.3-1.3-0.5-2-0.6
		c-1.2-0.1-2.4,0-3.5,0.6c-1.4,0.7-2.3,1.8-2.7,3.3c-0.2,1.1-0.2,2.2,0.1,3.2c0.3,1.1,1,1.9,2,2.4c0.2,0.1,0.5,0.2,0.7,0.3
		c0.6,0.2,1.3,0.3,2,0.4c0.4,0,0.9,0.1,1.3,0.1c0.3,0,0.7,0.1,1,0.3c0.3,0.1,0.5,0.3,0.6,0.7c0.1,0.4,0,0.8-0.3,1.2
		c-0.2,0.3-0.6,0.4-0.9,0.5c-0.7,0.2-1.3,0.2-2,0c-0.2-0.1-0.5-0.2-0.7-0.3c-0.3-0.2-0.5-0.5-0.6-0.9c0-0.1,0-0.1,0-0.2
		c0,0-0.1,0-0.1,0c-1.1,0-2.2,0-3.3,0c-0.1,0-0.1,0-0.2,0c0,0.3,0,0.5,0.1,0.7c0.1,1.1,0.6,2.1,1.4,2.9c0.5,0.5,1,0.8,1.7,1.1
		c1.5,0.6,3.1,0.7,4.7,0.3c0.9-0.2,1.6-0.6,2.3-1.2c0.9-0.8,1.4-1.7,1.6-2.9c0.1-0.7,0.1-1.4,0-2.1c-0.2-1.4-1-2.4-2.4-3
		c-0.4-0.2-0.8-0.3-1.3-0.4c-0.7-0.2-1.5-0.2-2.3-0.3c-0.4-0.1-0.9-0.1-1.3-0.3c-0.7-0.3-0.8-0.9-0.7-1.4c0.1-0.4,0.3-0.8,0.7-1
		c0.5-0.3,1-0.4,1.5-0.4c0.4,0,0.7,0.1,1,0.3c0.4,0.2,0.7,0.6,0.7,1.1c0,0.1,0,0.1,0,0.2c0.3,0.1,1.6,0.1,3.3,0
		C21.7,37,21.8,37,21.9,37z M36.8,48.2C36.8,48.2,36.8,48.3,36.8,48.2c0.2,0.1,0.2,0.1,0.3,0.1c1.1,0,2.3,0,3.4,0c0,0,0,0,0,0
		c0,0,0,0,0,0c0-0.2,0-0.4,0-0.6c0-0.2,0-0.4,0-0.7c0-0.2,0-0.4,0-0.7c0-0.2,0-0.5,0-0.7c0-0.2,0-0.4,0-0.7c0-0.2,0-0.4,0-0.7
		c0-0.2,0-0.4,0-0.7c0.3-0.1,1.7-0.1,1.9,0c0.8,1.6,1.6,3.2,2.5,4.7c0.1,0,0.1,0,0.1,0c1.3,0,2.6,0,3.9,0c0.1,0,0.1,0,0.1,0
		c0.1-0.4,0-0.7-0.2-1c-0.8-1.5-1.6-3-2.5-4.5c-0.1-0.1-0.1-0.2-0.1-0.3c0.1-0.1,0.1-0.1,0.2-0.1c0.6-0.5,1.1-1.2,1.4-2
		c0.3-0.7,0.4-1.4,0.5-2.1c0.1-1.3-0.1-2.5-0.7-3.6c-0.6-1.1-1.4-1.9-2.6-2.4c-0.6-0.3-1.3-0.4-2-0.4c-2,0-4.1,0-6.1,0
		c-0.1,0-0.2,0-0.3,0c0,0.1,0,0.1,0,0.1C36.8,37.5,36.8,42.8,36.8,48.2z M21.7,10.4c-0.2,0-0.3,0-0.4,0c-1.1,0-2.3,0-3.4,0
		c-0.6,0-1.2,0-1.8,0c-0.1,0-0.2,0-0.3,0.1c0,0,0,0.1,0,0.1c0,1.1,0,2.2,0,3.4c0,0.1,0,0.1,0,0.2c0.1,0,0.2,0,0.3,0c0.5,0,1,0,1.5,0
		c0.1,0,0.2,0,0.3,0c0,0.1,0,0.2,0,0.3c0,2.2,0,4.4,0,6.5c0,0.2,0,0.5,0,0.7c-0.1,0.7-0.5,1.2-1.2,1.4c-0.4,0.1-0.8,0.1-1.2,0
		c-0.6-0.2-1-0.6-1.2-1.3c-0.1-0.2-0.1-0.5-0.1-0.7c0-0.5,0-1.1,0-1.6c0-0.1,0-0.2,0-0.3c-0.1,0-0.1,0-0.1,0c-1.1,0-2.1,0-3.2,0
		c-0.1,0-0.1,0-0.2,0c0,0.1,0,0.2,0,0.3c0,0.6,0,1.3,0,1.9c0,0.5,0.1,1.1,0.2,1.6c0.5,1.9,1.7,3.1,3.5,3.7c1.4,0.4,2.7,0.4,4.1-0.2
		c1.4-0.6,2.4-1.6,2.9-3c0.3-0.7,0.4-1.4,0.4-2.1c0-3.6,0-7.1,0-10.7C21.7,10.6,21.7,10.5,21.7,10.4z M70.8,53.5
		c-0.1,0.1-0.1,0.3-0.2,0.4c-0.8,1.6-1.5,3.2-2.3,4.7c0,0.1-0.1,0.2-0.1,0.3c0,0.1-0.1,0.1-0.2,0c-0.1-0.1-0.1-0.2-0.2-0.3
		c-0.8-1.6-1.5-3.2-2.3-4.8c-0.1-0.1-0.1-0.2-0.2-0.3c-1.3,0-2.6,0-3.9,0c0,0-0.1,0-0.1,0c0,0.3,0,0.6,0.2,0.9
		c1.5,2.7,3,5.5,4.6,8.2c0.1,0.2,0.2,0.4,0.2,0.7c0,1.3,0,2.5,0,3.8c0,0.8,0,1.6,0,2.3c0,0.1,0,0.2,0,0.3c0,0,0,0,0.1,0
		c0.1,0,0.1,0,0.2,0c1.1,0,2.2,0,3.3,0c0,0,0,0,0,0c0,0,0,0,0.1-0.1c0-0.1,0-0.2,0-0.4c0-2,0-4,0-6.1c0-0.2,0.1-0.5,0.2-0.7
		c1.5-2.7,3.1-5.5,4.6-8.2c0.2-0.3,0.2-0.6,0.1-0.9C73.5,53.5,72.1,53.5,70.8,53.5z M65.4,40.1c0-1.1-0.2-2.3-0.5-3.4
		c-0.5-1.4-1.3-2.5-2.4-3.4c-1.4-1.1-2.9-1.6-4.6-1.6c-1.2,0-2.4,0.3-3.5,0.9c-1.5,0.9-2.6,2.1-3.2,3.8c-0.4,0.9-0.6,1.9-0.6,2.8
		c-0.1,1.3,0,2.6,0.4,3.9c0.4,1.4,1.1,2.6,2.1,3.6c1.7,1.5,3.7,2.1,5.9,1.9c1.3-0.2,2.5-0.7,3.5-1.5c1.1-0.9,1.9-2,2.4-3.3
		C65.2,42.6,65.4,41.4,65.4,40.1z M30.9,48.3c0-0.4,0-0.9,0-1.3c0-0.4,0-0.8,0-1.3c0-0.4,0-0.8,0-1.2c0-0.4,0-0.8,0-1.2
		c0-0.4,0-0.8,0-1.2c0-0.4,0-0.8,0-1.3c0-0.4,0-0.8,0-1.2c0-0.4,0-0.8,0-1.2c0-0.4,0-0.8,0-1.3c0-0.4,0-0.8,0-1.3c0.1,0,0.3,0,0.4,0
		c0.9,0,1.9,0,2.8,0c0.1,0,0.2,0,0.4-0.1c0-0.1,0-0.1,0-0.2c0-1.1,0-2.2,0-3.3c0-0.1,0-0.1,0-0.2c-3.6,0-7.1,0-10.6,0
		c0,0-0.1,0-0.1,0c0,0.1,0,0.1,0,0.2c0,1.1,0,2.2,0,3.4c0,0.1,0,0.1,0,0.2c0.1,0.1,0.3,0,0.4,0c0.9,0,1.9,0,2.8,0c0.1,0,0.2,0,0.4,0
		c0,0.1,0,0.3,0,0.4c0,3.9,0,7.7,0,11.6c0,0.1,0,0.2,0,0.3c0,0.1,0,0.1,0,0.2C28.5,48.3,29.7,48.3,30.9,48.3z M89.4,31.8
		c-0.1,0.1-0.1,0.2-0.1,0.4c-1.9,4.6-3.8,9.2-5.7,13.8c-0.2,0.5-0.4,1.1-0.7,1.6c-0.1,0.3-0.1,0.5,0,0.8c1.2,0,2.4,0,3.6,0
		c0.3-0.7,0.6-1.3,0.8-2c0.1,0,0.1,0,0.1,0c1.8,0,3.7,0,5.5,0c0,0,0.1,0,0.2,0c0.3,0.7,0.6,1.3,0.8,2c0,0,0.1,0,0.1,0
		c1.1,0,2.1,0,3.2,0c0.1,0,0.2,0,0.3,0c0,0,0,0,0,0c0,0,0,0,0,0c0-0.3,0-0.6-0.1-0.9c-1.2-2.8-2.4-5.7-3.5-8.5
		c-0.9-2.2-1.9-4.5-2.8-6.7c0-0.1-0.1-0.2-0.2-0.3C90.4,31.8,89.9,31.8,89.4,31.8z M83.2,26.7c0.1-0.3,0-0.6-0.1-0.9
		c-1.1-2.6-2.2-5.3-3.3-7.9c-1-2.4-2-4.9-3-7.3c-0.1-0.1-0.1-0.3-0.2-0.3c-0.5,0-1.3,0-1.6,0c0,0.1-0.1,0.2-0.1,0.3
		c-2.1,5.1-4.2,10.2-6.3,15.3c-0.1,0.3-0.1,0.6-0.1,0.9c0.4,0,0.8,0,1.2,0c0.4,0,0.8,0,1.2,0c0.4,0,0.8,0,1.2,0
		c0-0.1,0.1-0.2,0.1-0.3c0.2-0.5,0.4-1,0.6-1.5c0-0.1,0.1-0.2,0.1-0.3c1.9,0,3.8,0,5.7,0c0.1,0.1,0.1,0.2,0.2,0.3
		c0.2,0.5,0.4,1,0.6,1.5c0,0.1,0.1,0.2,0.1,0.2C80,26.7,83,26.7,83.2,26.7z M38.3,26.7c0-0.3,0-0.6-0.1-0.9
		c-2.1-5.1-4.2-10.2-6.3-15.3c0-0.1-0.1-0.2-0.1-0.3c-0.4,0-1.3,0-1.6,0c0,0.1-0.1,0.2-0.2,0.4c-1.6,3.8-3.2,7.7-4.8,11.5
		c-0.5,1.3-1,2.5-1.6,3.8c-0.1,0.3-0.1,0.5-0.1,0.8c0.3,0,3.3,0,3.6,0c0.2-0.3,0.3-0.7,0.4-1c0.1-0.3,0.3-0.7,0.4-1
		c0.1,0,0.1,0,0.2,0c1.8,0,3.5,0,5.3,0c0.1,0,0.2,0,0.2,0c0.3,0.7,0.6,1.4,0.8,2c0.3,0,2.9,0.1,3.5,0C38.2,26.7,38.2,26.7,38.3,26.7
		z"/>
	<path fill="#FFFFFF" d="M39.8,61.5c0,0.9-0.1,1.6-0.4,2.3c-0.2,0.5-0.5,0.9-0.8,1.3c-1.4,1.5-3.8,1.4-5.1-0.2
		c-0.5-0.5-0.7-1.2-0.9-1.9c-0.2-1.1-0.2-2.2,0.2-3.2c0.2-0.7,0.6-1.3,1.2-1.7c1.4-1.2,3.5-1,4.7,0.3c0.5,0.6,0.9,1.3,1,2.1
		C39.7,60.9,39.7,61.3,39.8,61.5z"/>
	<path fill="#FFFFFF" d="M55.7,13.7c0.1,0,0.2,0,0.2,0c0.1,0.1,0.1,0.1,0.2,0.2c1.2,1.4,2.5,2.7,3.7,4.1c0.6,0.7,1.2,1.3,1.8,1.9
		c0.8,0.9,1.7,1.8,2.5,2.7c0.1,0.1,0.1,0.2,0.2,0.2c0.1,0,0.1-0.1,0.1-0.1c0-0.1,0-0.2,0-0.3c0-3.4,0-6.7,0-10.1c0-0.1,0-0.3,0-0.4
		c0.1,0,0.1,0,0.2,0c0,0,0,0.1,0,0.1c0,0.6,0,11,0,11.3c-0.1,0-0.1,0-0.2,0c-0.1-0.1-0.2-0.2-0.2-0.2c-2.4-2.6-4.7-5.1-7.1-7.7
		c-0.3-0.3-0.6-0.7-0.9-1c-0.1-0.1-0.1-0.1-0.2-0.2c-0.1,0-0.1,0.1-0.1,0.1c0,0.1,0,0.2,0,0.3c0,3.3,0,6.7,0,10c0,0.1,0,0.3,0,0.4
		c-0.1,0-0.1,0-0.2,0c0,0,0-0.1,0-0.1C55.7,21.2,55.7,17.5,55.7,13.7C55.7,13.7,55.7,13.7,55.7,13.7z"/>
	<path fill="#FFFFFF" d="M70.1,35.3c0.1,0,0.2,0,0.3,0c0,0,0.1,0.1,0.1,0.1c1.3,1.4,2.5,2.8,3.8,4.2c0.4,0.4,0.7,0.8,1.1,1.2
		c1,1.1,2.1,2.3,3.1,3.4c0.1,0.1,0.2,0.2,0.3,0.3c0-0.1,0-0.1,0-0.2c0-0.1,0-0.2,0-0.3c0-3.3,0-6.7,0-10c0-0.1,0-0.3,0-0.4
		c0.1,0,0.1,0,0.2,0c0,0.1,0,0.2,0,0.3c0,3.6,0,7.2,0,10.8c0,0.1,0,0.1,0,0.2c0,0,0,0.1-0.1,0.1c0,0-0.1,0-0.1,0
		c-0.1-0.1-0.2-0.2-0.2-0.2c-2.3-2.5-4.6-5-6.9-7.5c-0.4-0.4-0.7-0.8-1.1-1.2c-0.1-0.1-0.2-0.2-0.3-0.3c0,0.1,0,0.1-0.1,0.1
		c0,0.1,0,0.2,0,0.3c0,3.4,0,6.7,0,10.1c0,0.1,0,0.2,0,0.3c0,0.1-0.1,0.1-0.1,0.1c0,0-0.1,0-0.1-0.1c0-0.1,0-0.2,0-0.3
		c0-0.5,0-0.9,0-1.4c0-3.1,0-6.2,0-9.2C70,35.5,70,35.4,70.1,35.3z"/>
	<path fill="#FFFFFF" d="M41.5,23.2c0.1-0.1,0.2,0,0.2,0c0,0,0.1,0.1,0.1,0.1c0.4,0.7,1,1.1,1.8,1.4c1.2,0.4,2.5,0.4,3.7-0.1
		c0.3-0.1,0.7-0.3,0.9-0.6c0.6-0.6,1-1.3,1-2.1c0-0.4,0-0.9-0.2-1.3c-0.2-0.6-0.6-1.1-1.2-1.4c-0.4-0.2-0.7-0.3-1.1-0.3
		c-0.5-0.1-0.9-0.1-1.4-0.1c-0.6-0.1-1.2-0.1-1.8-0.3c-0.2-0.1-0.5-0.2-0.7-0.3c-0.7-0.3-1.1-0.8-1.4-1.5c-0.2-0.6-0.3-1.3-0.2-2
		c0.1-0.9,0.5-1.5,1.2-2.1c0.6-0.5,1.3-0.7,2-0.8c0.8-0.1,1.6,0,2.3,0.2c0.7,0.3,1.3,0.7,1.7,1.4c0.1,0.1,0.1,0.2,0.2,0.3
		c-0.2,0.1-0.2,0.1-0.3,0c0,0,0-0.1-0.1-0.1c-0.5-0.8-1.2-1.2-2-1.5c-1.1-0.3-2.2-0.2-3.2,0.4c-0.8,0.4-1.4,1.1-1.6,2
		c-0.2,0.7-0.1,1.4,0.1,2.1c0.2,0.6,0.6,1,1.1,1.2c0.4,0.2,0.8,0.3,1.2,0.4c0.4,0.1,0.8,0.1,1.2,0.1c0.6,0.1,1.3,0.1,1.9,0.3
		c0.3,0.1,0.5,0.2,0.8,0.3c0.7,0.3,1.2,0.9,1.4,1.7c0.1,0.6,0.2,1.2,0.1,1.8c-0.2,0.8-0.6,1.4-1.2,1.8c-0.5,0.4-1,0.6-1.6,0.8
		c-1.1,0.3-2.1,0.2-3.2-0.2c-0.7-0.3-1.3-0.7-1.8-1.4C41.6,23.5,41.5,23.4,41.5,23.2z"/>
	<path fill="#FFFFFF" d="M19.8,35.4c-0.1,0.1-0.2,0.1-0.3-0.1c0,0,0,0,0-0.1c-0.5-0.8-1.2-1.3-2.1-1.5c-1.1-0.3-2.1-0.2-3.1,0.4
		c-0.9,0.5-1.4,1.2-1.6,2.1c-0.1,0.7-0.1,1.3,0.1,2c0.2,0.6,0.6,1,1.2,1.3c0.4,0.2,0.9,0.3,1.3,0.4c0.4,0.1,0.9,0.1,1.3,0.1
		c0.6,0.1,1.2,0.1,1.8,0.3c0.3,0.1,0.6,0.2,0.8,0.3c0.5,0.3,0.9,0.7,1.1,1.3c0.2,0.7,0.3,1.4,0.1,2.2c-0.2,0.7-0.6,1.2-1.1,1.6
		c-0.6,0.4-1.2,0.7-1.9,0.9c-1.1,0.2-2.1,0.2-3.1-0.2c-0.7-0.3-1.3-0.8-1.7-1.5c0-0.1-0.1-0.1-0.1-0.2c0,0,0,0,0-0.1
		c0.1,0,0.1,0,0.2,0c0,0,0,0.1,0.1,0.1c0.5,0.8,1.2,1.2,2,1.5c1.1,0.3,2.3,0.3,3.4-0.1c0.5-0.2,0.9-0.4,1.2-0.8
		c0.6-0.6,0.8-1.2,0.9-2c0-0.4,0-0.8-0.1-1.2c-0.2-0.7-0.6-1.2-1.3-1.5c-0.4-0.2-0.9-0.3-1.3-0.3c-0.5-0.1-1-0.1-1.5-0.1
		c-0.5,0-1-0.1-1.5-0.3c-0.2-0.1-0.5-0.2-0.7-0.3c-0.6-0.3-1-0.7-1.2-1.3c-0.3-0.8-0.4-1.6-0.2-2.4c0.2-0.7,0.6-1.3,1.2-1.8
		c0.5-0.4,1.1-0.6,1.8-0.8c0.8-0.2,1.6-0.1,2.4,0.2c0.8,0.3,1.4,0.8,1.8,1.5C19.8,35.3,19.8,35.3,19.8,35.4z"/>
	<path fill="#FFFFFF" d="M38.5,33.7c0.1,0,0.2,0,0.3,0c1.4,0,2.9,0,4.3,0c0.4,0,0.7,0,1.1,0.1c0.8,0.2,1.4,0.7,1.8,1.4
		c0.3,0.5,0.5,1,0.6,1.6c0.2,0.9,0.1,1.8-0.3,2.7c-0.2,0.4-0.4,0.8-0.7,1.1c-0.4,0.4-0.8,0.7-1.4,0.8c-0.1,0-0.2,0.1-0.3,0.1
		c0.4,0.9,0.9,1.7,1.3,2.5c0.4,0.8,0.9,1.6,1.4,2.5c-0.2,0.1-0.2,0.1-0.3-0.1c0-0.1-0.1-0.2-0.1-0.2c-0.8-1.5-1.6-2.9-2.4-4.4
		c-0.1-0.1-0.1-0.2-0.2-0.3c-0.3,0-0.5,0-0.8,0c-1.2,0-2.5,0-3.7,0c-0.1,0-0.2,0-0.4,0c-0.1,0.1-0.1,0.3-0.1,0.4c0,1.4,0,2.8,0,4.1
		c0,0.1,0,0.2,0,0.3c0,0.1,0,0.1,0,0.2c-0.1,0-0.2,0-0.2-0.1c0-0.1,0-0.2,0-0.2c0-4.1,0-8.2,0-12.3C38.5,33.9,38.5,33.9,38.5,33.7z
		 M38.7,33.9c0,0.2,0,0.3,0,0.4c0,1.5,0,2.9,0,4.4c0,0.8,0,1.6,0,2.4c0,0.1,0,0.2,0,0.3c0.1,0,0.2,0,0.4,0c0.7,0,1.4,0,2.1,0
		c0.7,0,1.3,0,2,0c1.3,0,2.2-0.6,2.8-1.8c0.1-0.1,0.1-0.2,0.1-0.3c0.3-0.8,0.4-1.7,0.2-2.6c-0.1-0.6-0.3-1.1-0.6-1.6
		c-0.5-0.7-1.1-1.1-1.8-1.2c-0.3-0.1-0.6-0.1-0.8-0.1c-1.4,0-2.7,0-4.1,0C38.9,33.9,38.8,33.9,38.7,33.9z"/>
	<path fill="#FFFFFF" d="M19.7,12.3c-0.8,0-1.6,0-2.5,0c0-0.1,0-0.1,0-0.2c0,0,0,0,0.1,0c0.1,0,0.1,0,0.2,0c0.7,0,1.5,0,2.2,0
		c0.1,0,0.2,0,0.3,0c0,0.1,0,0.2,0,0.2c0,0.4,0,0.9,0,1.3c0,2.5,0,5,0,7.5c0,0.4,0,0.9-0.2,1.3c-0.4,1.4-1.4,2.3-2.8,2.6
		c-0.7,0.2-1.4,0.1-2.1-0.1c-1.3-0.4-2.1-1.3-2.5-2.6c-0.1-0.5-0.2-1-0.1-1.6c0.2-0.1,0.2-0.1,0.2,0.1c0,0.3,0,0.6,0,0.9
		c0,0.5,0.2,1,0.4,1.4c0.5,0.9,1.3,1.4,2.3,1.6c0.7,0.1,1.4,0.1,2.1-0.1c1.2-0.4,2-1.2,2.3-2.5c0.1-0.3,0.1-0.7,0.1-1.1
		c0-2.8,0-5.7,0-8.5C19.8,12.5,19.8,12.4,19.7,12.3z"/>
	<path fill="#FFFFFF" d="M52.3,40.1c0-1,0.2-2,0.5-2.9c0.4-1.1,1.1-2,2-2.7c2.5-1.7,5.9-1.1,7.6,1.4c0.5,0.7,0.8,1.5,1,2.4
		c0.3,1.3,0.2,2.6-0.1,4c-0.3,1.1-0.8,2-1.6,2.8c-0.9,0.9-1.9,1.4-3.2,1.5c-1.8,0.2-3.9-0.5-5.2-2.4c-0.5-0.8-0.9-1.7-1-2.7
		C52.3,41.1,52.3,40.6,52.3,40.1z M52.5,40.2c0,0.2,0,0.4,0,0.7c0,0.2,0,0.4,0.1,0.6c0.1,0.9,0.4,1.8,0.9,2.5
		c1.7,2.7,5.1,3.1,7.5,1.4c1-0.7,1.6-1.6,2-2.8c0.4-1.1,0.5-2.2,0.4-3.3c-0.1-0.8-0.2-1.5-0.5-2.2c-0.9-2.2-3-3.6-5.4-3.4
		c-1,0.1-1.9,0.4-2.7,1.1c-0.8,0.6-1.3,1.4-1.7,2.4C52.6,38.2,52.5,39.1,52.5,40.2z"/>
	<path fill="#FFFFFF" d="M29,33.9c-0.2,0-0.3,0-0.4,0c-1,0-2.1,0-3.1,0c-0.1,0-0.2,0-0.3,0c-0.1,0-0.1-0.1-0.1-0.2
		c0.1-0.1,0.2,0,0.3,0c0.7,0,1.4,0,2.1,0c1.7,0,3.5,0,5.2,0c0.1,0,0.2,0,0.3,0c0,0,0.1,0.1,0.1,0.1c0,0,0,0.1-0.1,0.1
		c-0.1,0-0.2,0-0.3,0c-1,0-2.1,0-3.1,0c-0.1,0-0.2,0-0.3,0c-0.1,0.1-0.1,0.2-0.1,0.3c0,0.9,0,1.8,0,2.7c0,1.5,0,3.1,0,4.6
		c0,1.6,0,3.2,0,4.8c0,0.1,0,0.2,0,0.4c0,0-0.1,0-0.1,0c-0.1-0.1,0-0.3,0-0.4c0-2,0-4,0-6c0-2,0-4,0-6C29,34.2,29,34.1,29,33.9z"/>
	<path fill="#FFFFFF" d="M84.9,46.6c1.7-4.2,3.4-8.3,5.2-12.5c0,0,0,0,0.1-0.1c0.1,0,0.1,0.1,0.2,0.2c0.2,0.6,0.5,1.1,0.7,1.7
		c1.4,3.4,2.9,6.9,4.3,10.3c0,0.1,0.1,0.2,0.1,0.3c-0.2,0.1-0.2,0.1-0.3,0c0-0.1-0.1-0.1-0.1-0.2c-0.2-0.6-0.5-1.1-0.7-1.7
		c0-0.1-0.1-0.2-0.1-0.3c-0.3,0-7.7,0-8.1,0c0,0.1-0.1,0.2-0.1,0.3c-0.2,0.6-0.5,1.1-0.7,1.7c0,0.1-0.1,0.1-0.1,0.2
		C85.2,46.7,85.1,46.7,84.9,46.6z M90.2,34.7C90.2,34.7,90.1,34.7,90.2,34.7c-1.4,3.1-2.6,6.2-3.9,9.3c0,0,0,0.1,0,0.1
		c0.1,0,0.1,0,0.2,0c1.1,0,7.4,0,7.6,0c0,0,0-0.1,0-0.1C92.8,40.9,91.5,37.8,90.2,34.7z"/>
	<path fill="#FFFFFF" d="M81.1,25.1c0,0-0.1,0-0.1,0c0,0-0.1,0-0.1,0c-0.3-0.7-0.6-1.5-0.9-2.2c-0.1-0.1-0.3,0-0.4,0
		c-0.7,0-1.4,0-2.1,0c-1.7,0-3.4,0-5.1,0c-0.1,0-0.3,0-0.4,0c0,0.1-0.1,0.2-0.1,0.3c-0.2,0.6-0.5,1.2-0.7,1.7c0,0.1-0.1,0.1-0.1,0.2
		c0,0.1-0.1,0.1-0.3,0.1c0-0.1,0-0.2,0.1-0.3c0.5-1.1,0.9-2.2,1.4-3.3c1.2-2.9,2.4-5.7,3.5-8.6c0-0.1,0.1-0.3,0.2-0.3
		c0.2,0,0.2,0.2,0.2,0.3c1.6,3.9,3.3,7.9,4.9,11.9C81,24.9,81.1,25,81.1,25.1z M72,22.6c0.1,0,0.2,0,0.3,0c0.7,0,1.4,0,2,0
		c1.7,0,3.4,0,5.1,0c0.1,0,0.2,0,0.4,0c0-0.1,0-0.1-0.1-0.2c-1.3-3.1-2.6-6.1-3.8-9.2c0,0,0,0-0.1,0c-0.1,0.2-3.7,8.9-3.9,9.3
		C72,22.4,72,22.5,72,22.6z"/>
	<path fill="#FFFFFF" d="M36.2,25.1c-0.1,0-0.2,0-0.3,0c-0.3-0.7-0.6-1.5-0.9-2.2c-0.1-0.1-0.3,0-0.4,0c-0.7,0-1.5,0-2.2,0
		c-1.7,0-3.4,0-5,0c-0.1,0-0.3,0-0.4,0c0,0.1-0.1,0.2-0.1,0.3c-0.2,0.6-0.5,1.2-0.7,1.7c0,0.1-0.1,0.1-0.1,0.2
		c0,0.1-0.1,0.1-0.3,0.1c0-0.1,0-0.2,0.1-0.3c0.5-1.1,0.9-2.2,1.4-3.3c1.2-2.9,2.4-5.7,3.5-8.6c0-0.1,0.1-0.2,0.1-0.3
		c0,0,0.1,0,0.1,0c0,0.1,0.1,0.2,0.1,0.3c0.9,2.2,1.8,4.4,2.8,6.7c0.7,1.7,1.4,3.5,2.2,5.2C36.1,24.9,36.1,24.9,36.2,25.1z
		 M30.9,13.1c-0.1,0.1-0.1,0.2-0.2,0.3c-0.7,1.7-1.4,3.4-2.1,5.1c-0.5,1.2-1,2.4-1.5,3.7c0,0.1-0.1,0.2-0.1,0.4c0.1,0,0.2,0,0.3,0
		c1.1,0,2.3,0,3.4,0c1.3,0,2.5,0,3.8,0c0.1,0,0.2,0,0.3,0C34.8,22.3,31.2,13.5,30.9,13.1C31,13.2,30.9,13.1,30.9,13.1z"/>
	<path fill="#FFFFFF" d="M40.5,35.7c0.1,0,0.1,0,0.2,0c0.7,0,1.5,0,2.2,0c0.1,0,0.2,0,0.4,0c0.5,0,0.9,0.3,1.1,0.7
		c0.3,0.4,0.3,0.9,0.3,1.4c0,0.4-0.1,0.7-0.2,1c-0.1,0.2-0.2,0.4-0.4,0.6c-0.2,0.2-0.4,0.3-0.7,0.3c-0.1,0-0.2,0-0.3,0
		c-0.8,0-1.5,0-2.3,0c-0.1,0-0.1,0-0.2,0c0-0.1,0-0.1,0-0.2c0-1.2,0-2.5,0-3.7C40.5,35.8,40.5,35.8,40.5,35.7z"/>
	<path fill="#FFFFFF" d="M61.6,40.1c0,0.7-0.1,1.4-0.4,2c-0.2,0.5-0.4,0.9-0.8,1.3c-0.7,0.8-1.7,1.2-2.7,1.1
		c-0.9-0.1-1.7-0.4-2.3-1.1c-0.4-0.4-0.7-1-0.9-1.6c-0.4-1.2-0.4-2.4,0-3.6c0.2-0.5,0.4-0.9,0.7-1.4c1.4-1.7,4-1.7,5.4,0.1
		c0.5,0.6,0.7,1.3,0.8,2C61.6,39.4,61.6,39.8,61.6,40.1z"/>
	<path fill="#FFFFFF" d="M91.7,42.5c-1,0-1.9,0-2.9,0c0-0.1,0-0.1,0-0.2c0.4-1.1,0.9-2.2,1.3-3.4c0,0,0-0.1,0.1-0.1c0,0,0.1,0,0.1,0
		c0.5,1.2,1,2.3,1.4,3.5C91.7,42.4,91.7,42.4,91.7,42.5z"/>
	<path fill="#FFFFFF" d="M75.9,17.2c0.2,0.3,1,2.3,1.5,3.5c0,0,0,0.1,0,0.2c-0.1,0-0.1,0-0.1,0c-0.9,0-1.9,0-2.8,0
		c0-0.1,0-0.1,0-0.2C74.9,19.6,75.3,18.4,75.9,17.2C75.8,17.3,75.8,17.3,75.9,17.2z"/>
	<path fill="#FFFFFF" d="M30.9,17.2c0.5,1.2,1,2.4,1.5,3.6c0,0,0,0.1,0,0.1c-0.3,0-2.6,0-2.9,0c0-0.1,0-0.1,0-0.2
		c0.4-1.1,0.9-2.3,1.4-3.4C30.8,17.3,30.9,17.3,30.9,17.2z"/>
</g>
</svg>
